HIERARCHY
ROOT hip
{
  OFFSET 0 0 0
  CHANNELS 6 Xposition Yposition Zposition Zrotation Yrotation Xrotation
  JOINT abdomen
  {
    OFFSET 0 20.6881 -0.73152
    CHANNELS 3 Zrotation Xrotation Yrotation
    JOINT chest
    {
      OFFSET 0 11.7043 -0.48768
      CHANNELS 3 Zrotation Xrotation Yrotation
      JOINT neck
      {
        OFFSET 0 22.1894 -2.19456
        CHANNELS 3 Zrotation Xrotation Yrotation
        JOINT head
        {
          OFFSET -0.24384 7.07133 1.2192
          CHANNELS 3 Zrotation Xrotation Yrotation
          JOINT leftEye
          {
            OFFSET 4.14528 8.04674 8.04672
            CHANNELS 3 Zrotation Xrotation Yrotation
            End Site
            {
              OFFSET 1 0 0
            }
          }
          JOINT rightEye
          {
            OFFSET -3.6576 8.04674 8.04672
            CHANNELS 3 Zrotation Xrotation Yrotation
            End Site
            {
              OFFSET 1 0 0
            }
          }
        }
      }
      JOINT rCollar
      {
        OFFSET -2.68224 19.2634 -4.8768
        CHANNELS 3 Zrotation Xrotation Yrotation
        JOINT rShldr
        {
          OFFSET -8.77824 -1.95073 1.46304
          CHANNELS 3 Zrotation Xrotation Yrotation
          JOINT rForeArm
          {
            OFFSET -28.1742 -1.7115 0.48768
            CHANNELS 3 Zrotation Xrotation Yrotation
            JOINT rHand
            {
              OFFSET -22.5879 0.773209 7.07136
              CHANNELS 3 Zrotation Xrotation Yrotation
              JOINT rThumb1
              {
                OFFSET -1.2192 -0.487915 3.41376
                CHANNELS 3 Zrotation Xrotation Yrotation
                JOINT rThumb2
                {
                  OFFSET -3.37035 -0.52449 3.41376
                  CHANNELS 3 Zrotation Xrotation Yrotation
                  End Site
                  {
                    OFFSET -1.78271 -1.18214 1.43049
                  }
                }
              }
              JOINT rIndex1
              {
                OFFSET -7.75947 0.938293 5.60832
                CHANNELS 3 Zrotation Xrotation Yrotation
                JOINT rIndex2
                {
                  OFFSET -2.54057 -0.884171 1.56538
                  CHANNELS 3 Zrotation Xrotation Yrotation
                  End Site
                  {
                    OFFSET -1.62519 -0.234802 1.16502
                  }
                }
              }
              JOINT rMid1
              {
                OFFSET -8.24714 1.18213 3.41376
                CHANNELS 3 Zrotation Xrotation Yrotation
                JOINT rMid2
                {
                  OFFSET -3.10165 -0.590103 1.0647
                  CHANNELS 3 Zrotation Xrotation Yrotation
                  End Site
                  {
                    OFFSET -2.48547 -0.328903 0.83742
                  }
                }
              }
              JOINT rRing1
              {
                OFFSET -8.82822 0.546677 1.51678
                CHANNELS 3 Zrotation Xrotation Yrotation
                JOINT rRing2
                {
                  OFFSET -2.60934 -0.819778 -0.0198488
                  CHANNELS 3 Zrotation Xrotation Yrotation
                  End Site
                  {
                    OFFSET -2.33842 -0.294052 0.168128
                  }
                }
              }
              JOINT rPinky1
              {
                OFFSET -8.27202 -0.0477905 -0.4584
                CHANNELS 3 Zrotation Xrotation Yrotation
                JOINT rPinky2
                {
                  OFFSET -1.82734 -0.647385 -0.700984
                  CHANNELS 3 Zrotation Xrotation Yrotation
                  End Site
                  {
                    OFFSET -1.69225 -0.51767 -0.607171
                  }
                }
              }
            }
          }
        }
      }
      JOINT lCollar
      {
        OFFSET 2.68224 19.2634 -4.8768
        CHANNELS 3 Zrotation Xrotation Yrotation
        JOINT lShldr
        {
          OFFSET 8.77824 -1.95073 1.46304
          CHANNELS 3 Zrotation Xrotation Yrotation
          JOINT lForeArm
          {
            OFFSET 28.1742 -1.7115 0.48768
            CHANNELS 3 Zrotation Xrotation Yrotation
            JOINT lHand
            {
              OFFSET 22.5879 0.773209 7.07136
              CHANNELS 3 Zrotation Xrotation Yrotation
              JOINT lThumb1
              {
                OFFSET 1.2192 -0.487915 3.41376
                CHANNELS 3 Zrotation Xrotation Yrotation
                JOINT lThumb2
                {
                  OFFSET 3.37035 -0.52449 3.41376
                  CHANNELS 3 Zrotation Xrotation Yrotation
                  End Site
                  {
                    OFFSET 1.78271 -1.18214 1.43049
                  }
                }
              }
              JOINT lIndex1
              {
                OFFSET 7.75947 0.938293 5.60832
                CHANNELS 3 Zrotation Xrotation Yrotation
                JOINT lIndex2
                {
                  OFFSET 2.54057 -0.884171 1.56538
                  CHANNELS 3 Zrotation Xrotation Yrotation
                  End Site
                  {
                    OFFSET 1.62519 -0.234802 1.16502
                  }
                }
              }
              JOINT lMid1
              {
                OFFSET 8.24714 1.18213 3.41376
                CHANNELS 3 Zrotation Xrotation Yrotation
                JOINT lMid2
                {
                  OFFSET 3.10165 -0.590103 1.0647
                  CHANNELS 3 Zrotation Xrotation Yrotation
                  End Site
                  {
                    OFFSET 2.48547 -0.328903 0.83742
                  }
                }
              }
              JOINT lRing1
              {
                OFFSET 8.82822 0.546677 1.51678
                CHANNELS 3 Zrotation Xrotation Yrotation
                JOINT lRing2
                {
                  OFFSET 2.60934 -0.819778 -0.0198488
                  CHANNELS 3 Zrotation Xrotation Yrotation
                  End Site
                  {
                    OFFSET 2.33842 -0.294052 0.168128
                  }
                }
              }
              JOINT lPinky1
              {
                OFFSET 8.27202 -0.0477905 -0.4584
                CHANNELS 3 Zrotation Xrotation Yrotation
                JOINT lPinky2
                {
                  OFFSET 1.82734 -0.647385 -0.700984
                  CHANNELS 3 Zrotation Xrotation Yrotation
                  End Site
                  {
                    OFFSET 1.69225 -0.51767 -0.607171
                  }
                }
              }
            }
          }
        }
      }
    }
  }
  JOINT rButtock
  {
    OFFSET -8.77824 4.35084 1.2192
    CHANNELS 3 Zrotation Xrotation Yrotation
    JOINT rThigh
    {
      OFFSET 0 -1.70687 -2.19456
      CHANNELS 3 Zrotation Xrotation Yrotation
      JOINT rShin
      {
        OFFSET 0 -36.8199 0.73152
        CHANNELS 3 Zrotation Xrotation Yrotation
        JOINT rFoot
        {
          OFFSET 0.73152 -45.1104 -5.12064
          CHANNELS 3 Zrotation Xrotation Yrotation
          End Site
          {
            OFFSET -1.1221 -3.69964 12.103
          }
        }
      }
    }
  }
  JOINT lButtock
  {
    OFFSET 8.77824 4.35084 1.2192
    CHANNELS 3 Zrotation Xrotation Yrotation
    JOINT lThigh
    {
      OFFSET 0 -1.70687 -2.19456
      CHANNELS 3 Zrotation Xrotation Yrotation
      JOINT lShin
      {
        OFFSET 0 -36.8199 0.73152
        CHANNELS 3 Zrotation Xrotation Yrotation
        JOINT lFoot
        {
          OFFSET -0.73152 -45.1104 -5.12064
          CHANNELS 3 Zrotation Xrotation Yrotation
          End Site
          {
            OFFSET 1.1221 -3.69964 12.103
          }
        }
      }
    }
  }
}
MOTION
Frames:	11
Frame Time:	0.00833333
106.5269 80.655304 -0.74023 175.52998 -8.153983 -166.9299 7.253432 -7.1572795 1.6686835 -3.0583804 1.7513022 0.38204905 4.916613 10.526399 12.611303 -14.504991 11.605605 20.091898 -0.0 0.0 -0.0 -0.0 0.0 -0.0 -0.0 0.0 -0.0 96.365005 52.24701 -42.88051 -24.364994 -19.797592 50.764393 -0.7815485 24.05314 3.6002352 0.0 0.0 0.0 0.0 0.0 0.0 0.0 0.0 0.0 7.7309012 5.4749126 0.41732216 0.0 0.0 0.0 2.9055667 0.9650755 0.103008196 0.0 0.0 0.0 10.278597 0.731881 0.026273511 0.0 0.0 0.0 2.2216635 -0.73345095 -0.208321 -0.0 0.0 -0.0 113.362 67.30372 -153.56999 26.781301 -25.642605 -60.336502 0.79810953 24.508095 -3.6734176 -0.0 0.0 -0.0 -0.0 0.0 -0.0 -0.0 0.0 -0.0 -7.7309012 5.4749126 -0.41732216 -0.0 0.0 -0.0 -2.9055667 0.9650755 -0.103008196 -0.0 0.0 -0.0 -10.278597 0.731881 -0.026273511 -0.0 0.0 -0.0 -2.2216635 -0.73345095 0.208321 -0.0 0.0 -0.0 -9.143178 -38.681797 -0.288675 -0.4319403 44.82122 0.90063107 0.9056266 -17.242693 2.0921054 0.0 0.0 0.0 20.419605 -21.823494 -10.235198 0.112094805 26.54493 -0.47521177 0.07199437 4.297137 2.012396
101.28141 80.0183 -1.17549 171.83 9.910006 -165.0299 2.4069154 -7.5891075 4.7573643 -3.048213 1.8542504 1.4384094 5.4966235 11.543806 12.652591 -18.071995 9.752235 27.254295 -0.0 0.0 -0.0 -0.0 0.0 -0.0 -0.0 0.0 -0.0 113.72399 55.516777 -57.4217 -24.917908 -20.920786 52.658592 -0.5666892 20.886745 3.0738242 -0.0 0.0 -0.0 -0.0 0.0 -0.0 -0.0 0.0 -0.0 7.7309012 5.4749126 0.41732216 -0.0 0.0 -0.0 2.9055667 0.9650755 0.103008196 -0.0 0.0 -0.0 10.278597 0.731881 0.026273511 -0.0 0.0 -0.0 2.2216635 -0.73345095 -0.208321 -0.0 0.0 -0.0 147.97 64.4079 169.93498 26.3763 -24.442795 -58.427006 0.9880088 26.82889 -4.0806346 -0.0 0.0 -0.0 -0.0 0.0 -0.0 -0.0 0.0 -0.0 -7.7309012 5.4749126 -0.41732216 -0.0 0.0 -0.0 -2.9055667 0.9650755 -0.103008196 -0.0 0.0 -0.0 -10.278597 0.731881 -0.026273511 -0.0 0.0 -0.0 -2.2216635 -0.73345095 0.208321 -0.0 0.0 -0.0 -19.401602 -48.500298 -17.396212 -0.58884054 51.407097 1.2954055 -5.80394 -14.535308 -15.069891 0.0 0.0 0.0 13.012019 -15.37649 -0.09369899 0.09242462 26.209612 -0.56024665 0.82734054 -0.07516516 9.103086
97.9718 79.4595 -2.97912 169.94998 21.534996 -165.58003 -0.57107836 -8.096515 3.4205065 -2.0423734 3.2513266 1.0974703 5.003641 12.201795 11.449403 -22.17079 8.422927 32.1947 -0.0 0.0 -0.0 -0.0 0.0 -0.0 -0.0 0.0 -0.0 128.365 52.9734 -66.999 -25.2036 -21.53919 53.6886 -0.34017754 16.698063 2.4139507 -0.0 0.0 -0.0 -0.0 0.0 -0.0 -0.0 0.0 -0.0 7.7309012 5.4749126 0.41732216 -0.0 0.0 -0.0 2.9055667 0.9650755 0.103008196 -0.0 0.0 -0.0 10.278597 0.731881 0.026273511 -0.0 0.0 -0.0 2.2216635 -0.73345095 -0.208321 -0.0 0.0 -0.0 165.13098 57.3006 147.459 26.15509 -23.838795 -57.433193 1.2478087 30.005772 -4.653571 -0.0 -0.0 -0.0 -0.0 -0.0 -0.0 -0.0 -0.0 -0.0 -7.7309012 5.4749126 -0.41732216 -0.0 -0.0 -0.0 -2.9055667 0.9650755 -0.103008196 -0.0 -0.0 -0.0 -10.278597 0.731881 -0.026273511 -0.0 -0.0 -0.0 -2.2216635 -0.73345095 0.208321 -0.0 0.0 -0.0 -26.420597 -48.87611 -42.6585 -0.617011 52.8968 1.590006 -14.148208 -14.715787 -33.730003 0.0 0.0 0.0 6.612756 -8.83649 8.065361 0.04339062 22.473404 -0.54736423 1.3077333 0.02143556 14.157508
97.5457 79.1605 -5.5423 167.71997 35.498993 -169.39989 -1.8283464 -8.586877 1.5807998 -1.0792539 5.474653 0.62220484 3.3388286 11.621097 10.931803 -22.472197 9.842135 29.844995 -0.0 0.0 -0.0 -0.0 0.0 -0.0 -0.0 0.0 -0.0 139.629 48.8555 -72.395195 -25.032202 -21.166296 53.049706 -0.2541426 14.206534 2.0392184 -0.0 -0.0 -0.0 -0.0 -0.0 -0.0 -0.0 -0.0 -0.0 7.7309012 5.4749126 0.41732216 -0.0 -0.0 -0.0 2.9055667 0.9650755 0.103008196 -0.0 -0.0 -0.0 10.278597 0.731881 0.026273511 -0.0 -0.0 -0.0 2.2216635 -0.73345095 -0.208321 -0.0 0.0 -0.0 172.52199 51.0613 131.63899 25.553408 -22.3401 -54.946796 1.3324065 30.88195 -4.821164 -0.0 0.0 -0.0 -0.0 0.0 -0.0 -0.0 0.0 -0.0 -7.7309012 5.4749126 -0.41732216 -0.0 0.0 -0.0 -2.9055667 0.9650755 -0.103008196 -0.0 0.0 -0.0 -10.278597 0.731881 -0.026273511 -0.0 0.0 -0.0 -2.2216635 -0.73345095 0.208321 -0.0 0.0 -0.0 -14.149723 -44.877388 -37.809906 -0.34056404 44.436592 1.2146068 -18.223192 -18.91681 -36.833 0.0 0.0 0.0 3.7434187 -6.66117 12.888794 0.16392756 27.701693 -0.46242934 0.47319767 4.488365 12.822902
98.8154 79.20071 -6.68203 168.15993 51.304996 -172.03996 -0.7402721 -7.438381 0.46272245 -1.984914 6.5318503 0.40250337 1.1688504 10.039411 6.6956706 -16.90479 11.7811775 19.687994 -0.0 0.0 -0.0 -0.0 0.0 -0.0 0.0 0.0 -0.0 145.50699 44.3759 -73.3516 -24.58961 -20.240984 51.5396 -0.28363806 14.986314 2.156185 0.0 0.0 0.0 0.0 0.0 0.0 0.0 0.0 0.0 7.7309012 5.4749126 0.41732216 0.0 0.0 0.0 2.9055667 0.9650755 0.103008196 0.0 0.0 0.0 10.278597 0.731881 0.026273511 0.0 0.0 0.0 2.2216635 -0.73345095 -0.208321 0.0 0.0 -0.0 178.30399 47.145096 116.738976 24.701397 -20.471197 -51.900303 1.0489659 27.762245 -4.2428503 -0.0 0.0 -0.0 -0.0 0.0 -0.0 -0.0 0.0 -0.0 -7.7309012 5.4749126 -0.41732216 -0.0 0.0 -0.0 -2.9055667 0.9650755 -0.103008196 -0.0 0.0 -0.0 -10.278597 0.731881 -0.026273511 -0.0 0.0 -0.0 -2.2216635 -0.73345095 0.208321 -0.0 0.0 -0.0 -0.3233323 -39.776794 -19.829697 -0.26483595 37.577763 0.7350052 -16.918688 -21.573002 -32.801598 0.0 0.0 0.0 9.093366 -14.097702 19.7822 0.51621336 48.212795 -0.83975154 0.42337537 18.855299 -0.42337537
99.959206 79.2309 -6.83117 167.84 68.087 -175.73 -0.57005346 -5.152462 0.1429639 -2.18903 6.7887836 0.35366055 -2.566136 9.649236 -1.0096714 -7.095278 11.737887 2.3409257 -0.0 0.0 -0.0 -0.0 0.0 -0.0 0.0 0.0 -0.0 145.54 40.476196 -72.22109 -24.08479 -19.259016 49.8605 -0.43036065 18.325947 2.6675806 -0.0 0.0 -0.0 -0.0 0.0 -0.0 -0.0 0.0 -0.0 7.7309012 5.4749126 0.41732216 -0.0 0.0 -0.0 2.9055667 0.9650755 0.103008196 -0.0 0.0 -0.0 10.278597 0.731881 0.026273511 -0.0 0.0 -0.0 2.2216635 -0.73345095 -0.208321 0.0 0.0 -0.0 -178.44499 45.535896 104.10899 24.320602 -19.70589 -50.661495 0.82573426 24.89491 -3.7396145 0.0 0.0 -0.0 0.0 0.0 -0.0 0.0 0.0 -0.0 -7.7309012 5.4749126 -0.41732216 0.0 0.0 -0.0 -2.9055667 0.9650755 -0.103008196 0.0 0.0 -0.0 -10.278597 0.731881 -0.026273511 0.0 0.0 -0.0 -2.2216635 -0.73345095 0.208321 -0.0 0.0 -0.0 8.301253 -36.140793 -8.289119 -0.24264878 36.641 0.45136666 -11.577809 -21.825203 -23.591997 0.0 0.0 0.0 17.664486 -28.320305 22.85829 2.2693038 71.060486 -2.6848752 3.0809422 22.479393 -10.253097
100.529305 79.8435 -6.609 87.761765 88.494156 103.94989 -3.434636 -4.3170033 1.1785083 -2.0991666 7.5863805 0.70423555 -5.3202767 10.9901 -8.247743 1.0926356 8.736112 -13.376276 -0.0 0.0 -0.0 -0.0 0.0 -0.0 -0.0 0.0 0.0 142.054 38.111095 -70.16509 -23.669605 -18.481487 48.663097 -0.602483 21.496626 3.1730971 -0.0 0.0 0.0 -0.0 0.0 0.0 -0.0 0.0 0.0 7.7309012 5.4749126 0.41732216 -0.0 0.0 0.0 2.9055667 0.9650755 0.103008196 -0.0 0.0 0.0 10.278597 0.731881 0.026273511 -0.0 0.0 0.0 2.2216635 -0.73345095 -0.208321 -0.0 0.0 0.0 -178.495 46.7154 95.818794 24.65369 -20.371803 -51.753597 0.55750185 20.724924 -3.0481424 0.0 0.0 -0.0 0.0 0.0 -0.0 0.0 0.0 -0.0 -7.7309012 5.4749126 -0.41732216 0.0 0.0 -0.0 -2.9055667 0.9650755 -0.103008196 0.0 0.0 -0.0 -10.278597 0.731881 -0.026273511 0.0 0.0 -0.0 -2.2216635 -0.73345095 0.208321 -0.0 0.0 -0.0 15.135195 -31.2904 5.142999 -0.15051326 33.631916 0.44966793 -7.186798 -22.460308 -14.951997 0.0 0.0 0.0 19.848087 -41.923298 17.960686 4.583566 79.01072 -4.908307 0.5323256 10.311861 -4.8062067
101.83851 80.792 -7.008 3.7340338 67.53601 18.730019 -5.9812417 -4.6625423 2.2062001 -4.0681715 8.30968 1.1575693 -6.3567176 12.161998 -12.663097 6.4468617 3.9793193 -22.866106 -0.0 0.0 -0.0 -0.0 0.0 -0.0 -0.0 0.0 -0.0 136.58199 36.787792 -68.97581 -24.599705 -20.274187 51.61401 -0.6220582 21.574282 3.189363 -0.0 0.0 -0.0 -0.0 0.0 -0.0 -0.0 0.0 -0.0 7.7309012 5.4749126 0.41732216 -0.0 0.0 -0.0 2.9055667 0.9650755 0.103008196 -0.0 0.0 -0.0 10.278597 0.731881 0.026273511 -0.0 0.0 -0.0 2.2216635 -0.73345095 -0.208321 -0.0 0.0 -0.0 179.63698 50.845703 91.68619 25.398401 -21.980598 -54.368298 0.26800948 14.582189 -2.094495 -0.0 -0.0 -0.0 -0.0 -0.0 -0.0 -0.0 -0.0 -0.0 -7.7309012 5.4749126 -0.41732216 -0.0 -0.0 -0.0 -2.9055667 0.9650755 -0.103008196 -0.0 -0.0 -0.0 -10.278597 0.731881 -0.026273511 -0.0 -0.0 -0.0 -2.2216635 -0.73345095 0.208321 -0.0 0.0 -0.0 17.353088 -26.0811 16.289198 -0.074249364 31.112404 0.57529527 -1.8192983 -23.381 -3.079284 0.0 0.0 0.0 16.158354 -48.75061 8.482359 2.477171 72.17886 -2.854669 0.3600206 -0.90683854 -0.19299324
103.55001 81.9467 -6.65966 -0.013972458 45.795002 14.379909 -7.0201197 -5.8856864 1.4715321 -6.196252 8.433768 1.0750384 -7.035393 12.951696 -15.283108 10.737372 -1.5697854 -28.295086 -0.0 0.0 -0.0 -0.0 0.0 -0.0 -0.0 -0.0 -0.0 129.26898 38.409496 -68.681595 -26.640593 -25.2131 59.399097 -0.7607325 23.957026 3.584459 -0.0 0.0 -0.0 -0.0 0.0 -0.0 -0.0 0.0 -0.0 7.7309012 5.4749126 0.41732216 -0.0 0.0 -0.0 2.9055667 0.9650755 0.103008196 -0.0 0.0 -0.0 10.278597 0.731881 0.026273511 -0.0 0.0 -0.0 2.2216635 -0.73345095 -0.208321 -0.0 -0.0 -0.0 176.40297 54.420494 92.15339 26.095095 -23.681194 -57.182198 0.08367982 8.223262 -1.1640402 -0.0 -0.0 -0.0 -0.0 -0.0 -0.0 -0.0 -0.0 -0.0 -7.7309012 5.4749126 -0.41732216 -0.0 -0.0 -0.0 -2.9055667 0.9650755 -0.103008196 -0.0 -0.0 -0.0 -10.278597 0.731881 -0.026273511 -0.0 -0.0 -0.0 -2.2216635 -0.73345095 0.208321 -0.0 0.0 -0.0 15.908587 -21.719202 23.881699 -0.04285856 28.2996 0.5865802 4.2097473 -21.651701 11.404592 0.0 0.0 0.0 8.871846 -48.006004 -2.5493674 0.7772756 54.534912 -1.1340612 -1.6227893 -10.694805 -6.827355
105.82381 83.2552 -5.8611503 -1.5899876 25.175005 13.120075 -6.6051116 -6.985828 -1.0252391 -6.3338614 8.313325 0.30884445 -7.209194 13.3789 -17.213686 12.992094 -6.458289 -32.007885 -0.0 0.0 -0.0 -0.0 0.0 -0.0 -0.0 -0.0 -0.0 120.33995 43.79422 -67.571724 -28.076694 -30.975706 68.7044 -1.7181938 34.83497 5.587501 -0.0 0.0 -0.0 -0.0 0.0 -0.0 -0.0 0.0 -0.0 7.7309012 5.4749126 0.41732216 -0.0 0.0 -0.0 2.9055667 0.9650755 0.103008196 -0.0 0.0 -0.0 10.278597 0.731881 0.026273511 -0.0 0.0 -0.0 2.2216635 -0.73345095 -0.208321 -0.0 -0.0 -0.0 174.40399 54.404896 93.73599 26.694407 -25.363993 -59.8431 0.039930586 5.6934514 -0.8030045 -0.0 0.0 -0.0 -0.0 0.0 -0.0 -0.0 0.0 -0.0 -7.7309012 5.4749126 -0.41732216 -0.0 0.0 -0.0 -2.9055667 0.9650755 -0.103008196 -0.0 0.0 -0.0 -10.278597 0.731881 -0.026273511 -0.0 0.0 -0.0 -2.2216635 -0.73345095 0.208321 -0.0 0.0 -0.0 12.358894 -18.9116 26.537899 -0.04624616 25.490297 0.50185746 6.2822742 -10.372703 27.556107 0.0 0.0 0.0 1.368159 -42.5312 -15.431693 0.28326216 35.21839 -0.4711993 -5.273761 -16.957895 -14.1945095
107.992905 83.9062 -4.17375 -2.8969781 5.345014 10.739889 -4.88825 -7.363311 -3.3470254 -5.0175095 8.640637 -0.4878767 -7.432401 14.013306 -18.663406 14.355812 -10.231371 -34.64451 -0.0 0.0 -0.0 -0.0 0.0 -0.0 -0.0 -0.0 -0.0 109.62399 52.358 -63.937294 -28.431602 -36.010998 77.064 -3.4732766 45.593937 8.252058 -0.0 0.0 -0.0 -0.0 0.0 -0.0 -0.0 0.0 -0.0 7.7309012 5.4749126 0.41732216 -0.0 0.0 -0.0 2.9055667 0.9650755 0.103008196 -0.0 0.0 -0.0 10.278597 0.731881 0.026273511 -0.0 0.0 -0.0 2.2216635 -0.73345095 -0.208321 -0.0 -0.0 -0.0 176.02698 51.496593 95.033 27.205904 -27.047987 -62.539898 0.031729646 5.0782104 -0.7155123 -0.0 0.0 0.0 -0.0 0.0 0.0 -0.0 0.0 0.0 -7.7309012 5.4749126 -0.41732216 -0.0 0.0 0.0 -2.9055667 0.9650755 -0.103008196 -0.0 0.0 0.0 -10.278597 0.731881 -0.026273511 -0.0 0.0 0.0 -2.2216635 -0.73345095 0.208321 -0.0 0.0 -0.0 8.795067 -17.212303 25.78759 -0.04654137 24.6612 0.5656538 -0.81008035 3.3905022 38.532204 0.0 0.0 0.0 -1.2982008 -36.126408 -20.945498 0.18028186 26.45939 -0.22357728 -7.4239345 -19.657406 -17.808006
